<svg width="97" height="92" viewBox="0 0 97 92" fill="none" xmlns="http://www.w3.org/2000/svg">
<g filter="url(#filter0_d_2_280)">
<rect x="20" y="15" width="57" height="57" rx="28.5" fill="white"/>
<path d="M63.2615 48.4551L59.4564 46.1875L63.2615 43.9199C63.4094 43.8318 63.5 43.6723 63.5 43.5002C63.5 43.3281 63.4094 43.1686 63.2615 43.0805L59.4564 40.8129L63.2615 38.5454C63.4933 38.4072 63.5692 38.1073 63.4311 37.8755C63.3896 37.8057 63.3312 37.7475 63.2615 37.7059L48.7502 29.0578C48.5961 28.9659 48.404 28.9659 48.2499 29.0578L33.7386 37.7059C33.5068 37.8441 33.4309 38.144 33.569 38.3758C33.6106 38.4456 33.6689 38.5038 33.7386 38.5454L37.5438 40.8129L33.7385 43.0805C33.5067 43.2187 33.4308 43.5185 33.569 43.7504C33.6105 43.8201 33.6688 43.8784 33.7385 43.9199L37.5437 46.1875L33.7385 48.4551C33.5067 48.5932 33.4308 48.8931 33.569 49.1249C33.6105 49.1947 33.6688 49.2529 33.7385 49.2945L48.2498 57.9426C48.4041 58.0339 48.5959 58.0339 48.7502 57.9426L63.2615 49.2945C63.4933 49.1563 63.5692 48.8564 63.431 48.6246C63.3895 48.5549 63.3312 48.4967 63.2615 48.4551ZM34.9429 38.1256L48.5 30.0462L62.0571 38.1256L48.5 46.2051L34.9429 38.1256ZM34.9429 43.5002L38.4979 41.3821L48.2498 47.1964C48.404 47.2883 48.596 47.2883 48.7502 47.1964L58.5021 41.3821L62.0571 43.5002L48.5 51.5796L34.9429 43.5002ZM48.5 56.9542L34.9429 48.8748L38.4979 46.7567L48.2498 52.571C48.404 52.6629 48.596 52.6629 48.7502 52.571L58.5021 46.7567L62.0571 48.8748L48.5 56.9542Z" fill="#2A62A6"/>
</g>
<defs>
<filter id="filter0_d_2_280" x="0" y="-5" width="97" height="97" filterUnits="userSpaceOnUse" color-interpolation-filters="sRGB">
<feFlood flood-opacity="0" result="BackgroundImageFix"/>
<feColorMatrix in="SourceAlpha" type="matrix" values="0 0 0 0 0 0 0 0 0 0 0 0 0 0 0 0 0 0 127 0" result="hardAlpha"/>
<feOffset/>
<feGaussianBlur stdDeviation="10"/>
<feComposite in2="hardAlpha" operator="out"/>
<feColorMatrix type="matrix" values="0 0 0 0 0 0 0 0 0 0 0 0 0 0 0 0 0 0 0.15 0"/>
<feBlend mode="normal" in2="BackgroundImageFix" result="effect1_dropShadow_2_280"/>
<feBlend mode="normal" in="SourceGraphic" in2="effect1_dropShadow_2_280" result="shape"/>
</filter>
</defs>
</svg>
