<svg width="210" height="102" viewBox="0 0 210 102" fill="none" xmlns="http://www.w3.org/2000/svg">
<g filter="url(#filter0_bd_2_2547)">
<rect x="15" y="15" width="165" height="57" rx="28.5" fill="white" shape-rendering="crispEdges"/>
<path d="M56.84 39.6C56.46 38.9 55.91 38.37 55.19 38.01C54.49 37.63 53.66 37.44 52.7 37.44C51.04 37.44 49.71 37.99 48.71 39.09C47.71 40.17 47.21 41.62 47.21 43.44C47.21 45.38 47.73 46.9 48.77 48C49.83 49.08 51.28 49.62 53.12 49.62C54.38 49.62 55.44 49.3 56.3 48.66C57.18 48.02 57.82 47.1 58.22 45.9H51.71V42.12H62.87V46.89C62.49 48.17 61.84 49.36 60.92 50.46C60.02 51.56 58.87 52.45 57.47 53.13C56.07 53.81 54.49 54.15 52.73 54.15C50.65 54.15 48.79 53.7 47.15 52.8C45.53 51.88 44.26 50.61 43.34 48.99C42.44 47.37 41.99 45.52 41.99 43.44C41.99 41.36 42.44 39.51 43.34 37.89C44.26 36.25 45.53 34.98 47.15 34.08C48.77 33.16 50.62 32.7 52.7 32.7C55.22 32.7 57.34 33.31 59.06 34.53C60.8 35.75 61.95 37.44 62.51 39.6H56.84ZM68.2916 35.52C67.3916 35.52 66.6516 35.26 66.0716 34.74C65.5116 34.2 65.2316 33.54 65.2316 32.76C65.2316 31.96 65.5116 31.3 66.0716 30.78C66.6516 30.24 67.3916 29.97 68.2916 29.97C69.1716 29.97 69.8916 30.24 70.4516 30.78C71.0316 31.3 71.3216 31.96 71.3216 32.76C71.3216 33.54 71.0316 34.2 70.4516 34.74C69.8916 35.26 69.1716 35.52 68.2916 35.52ZM70.8416 37.26V54H65.7116V37.26H70.8416ZM81.3692 54.24C79.9092 54.24 78.6092 53.99 77.4692 53.49C76.3292 52.99 75.4292 52.31 74.7692 51.45C74.1092 50.57 73.7392 49.59 73.6592 48.51H78.7292C78.7892 49.09 79.0592 49.56 79.5392 49.92C80.0192 50.28 80.6092 50.46 81.3092 50.46C81.9492 50.46 82.4392 50.34 82.7792 50.1C83.1392 49.84 83.3192 49.51 83.3192 49.11C83.3192 48.63 83.0692 48.28 82.5692 48.06C82.0692 47.82 81.2592 47.56 80.1392 47.28C78.9392 47 77.9392 46.71 77.1392 46.41C76.3392 46.09 75.6492 45.6 75.0692 44.94C74.4892 44.26 74.1992 43.35 74.1992 42.21C74.1992 41.25 74.4592 40.38 74.9792 39.6C75.5192 38.8 76.2992 38.17 77.3192 37.71C78.3592 37.25 79.5892 37.02 81.0092 37.02C83.1092 37.02 84.7592 37.54 85.9592 38.58C87.1792 39.62 87.8792 41 88.0592 42.72H83.3192C83.2392 42.14 82.9792 41.68 82.5392 41.34C82.1192 41 81.5592 40.83 80.8592 40.83C80.2592 40.83 79.7992 40.95 79.4792 41.19C79.1592 41.41 78.9992 41.72 78.9992 42.12C78.9992 42.6 79.2492 42.96 79.7492 43.2C80.2692 43.44 81.0692 43.68 82.1492 43.92C83.3892 44.24 84.3992 44.56 85.1792 44.88C85.9592 45.18 86.6392 45.68 87.2192 46.38C87.8192 47.06 88.1292 47.98 88.1492 49.14C88.1492 50.12 87.8692 51 87.3092 51.78C86.7692 52.54 85.9792 53.14 84.9392 53.58C83.9192 54.02 82.7292 54.24 81.3692 54.24Z" fill="#0052B4"/>
<path d="M99.046 48.112C98.3647 48.112 97.758 47.9953 97.226 47.762C96.694 47.5287 96.274 47.2113 95.966 46.81C95.658 46.3993 95.4853 45.942 95.448 45.438H97.814C97.842 45.7087 97.968 45.928 98.192 46.096C98.416 46.264 98.6913 46.348 99.018 46.348C99.3167 46.348 99.5453 46.292 99.704 46.18C99.872 46.0587 99.956 45.9047 99.956 45.718C99.956 45.494 99.8393 45.3307 99.606 45.228C99.3727 45.116 98.9947 44.9947 98.472 44.864C97.912 44.7333 97.4453 44.598 97.072 44.458C96.6987 44.3087 96.3767 44.08 96.106 43.772C95.8353 43.4547 95.7 43.03 95.7 42.498C95.7 42.05 95.8213 41.644 96.064 41.28C96.316 40.9067 96.68 40.6127 97.156 40.398C97.6413 40.1833 98.2153 40.076 98.878 40.076C99.858 40.076 100.628 40.3187 101.188 40.804C101.757 41.2893 102.084 41.9333 102.168 42.736H99.956C99.9187 42.4653 99.7973 42.2507 99.592 42.092C99.396 41.9333 99.1347 41.854 98.808 41.854C98.528 41.854 98.3133 41.91 98.164 42.022C98.0147 42.1247 97.94 42.2693 97.94 42.456C97.94 42.68 98.0567 42.848 98.29 42.96C98.5327 43.072 98.906 43.184 99.41 43.296C99.9887 43.4453 100.46 43.5947 100.824 43.744C101.188 43.884 101.505 44.1173 101.776 44.444C102.056 44.7613 102.201 45.1907 102.21 45.732C102.21 46.1893 102.079 46.6 101.818 46.964C101.566 47.3187 101.197 47.5987 100.712 47.804C100.236 48.0093 99.6807 48.112 99.046 48.112ZM111.655 40.188L106.755 51.71H104.179L105.971 47.734L102.793 40.188H105.467L107.273 45.074L109.065 40.188H111.655ZM115.698 48.112C115.017 48.112 114.41 47.9953 113.878 47.762C113.346 47.5287 112.926 47.2113 112.618 46.81C112.31 46.3993 112.138 45.942 112.1 45.438H114.466C114.494 45.7087 114.62 45.928 114.844 46.096C115.068 46.264 115.344 46.348 115.67 46.348C115.969 46.348 116.198 46.292 116.356 46.18C116.524 46.0587 116.608 45.9047 116.608 45.718C116.608 45.494 116.492 45.3307 116.258 45.228C116.025 45.116 115.647 44.9947 115.124 44.864C114.564 44.7333 114.098 44.598 113.724 44.458C113.351 44.3087 113.029 44.08 112.758 43.772C112.488 43.4547 112.352 43.03 112.352 42.498C112.352 42.05 112.474 41.644 112.716 41.28C112.968 40.9067 113.332 40.6127 113.808 40.398C114.294 40.1833 114.868 40.076 115.53 40.076C116.51 40.076 117.28 40.3187 117.84 40.804C118.41 41.2893 118.736 41.9333 118.82 42.736H116.608C116.571 42.4653 116.45 42.2507 116.244 42.092C116.048 41.9333 115.787 41.854 115.46 41.854C115.18 41.854 114.966 41.91 114.816 42.022C114.667 42.1247 114.592 42.2693 114.592 42.456C114.592 42.68 114.709 42.848 114.942 42.96C115.185 43.072 115.558 43.184 116.062 43.296C116.641 43.4453 117.112 43.5947 117.476 43.744C117.84 43.884 118.158 44.1173 118.428 44.444C118.708 44.7613 118.853 45.1907 118.862 45.732C118.862 46.1893 118.732 46.6 118.47 46.964C118.218 47.3187 117.85 47.5987 117.364 47.804C116.888 48.0093 116.333 48.112 115.698 48.112ZM124.681 45.97V48H123.463C122.595 48 121.918 47.79 121.433 47.37C120.948 46.9407 120.705 46.2453 120.705 45.284V42.176H119.753V40.188H120.705V38.284H123.099V40.188H124.667V42.176H123.099V45.312C123.099 45.5453 123.155 45.7133 123.267 45.816C123.379 45.9187 123.566 45.97 123.827 45.97H124.681ZM133.378 43.968C133.378 44.192 133.364 44.4253 133.336 44.668H127.918C127.956 45.1533 128.11 45.5267 128.38 45.788C128.66 46.04 129.001 46.166 129.402 46.166C130 46.166 130.415 45.914 130.648 45.41H133.196C133.066 45.9233 132.828 46.3853 132.482 46.796C132.146 47.2067 131.722 47.5287 131.208 47.762C130.695 47.9953 130.121 48.112 129.486 48.112C128.721 48.112 128.04 47.9487 127.442 47.622C126.845 47.2953 126.378 46.8287 126.042 46.222C125.706 45.6153 125.538 44.906 125.538 44.094C125.538 43.282 125.702 42.5727 126.028 41.966C126.364 41.3593 126.831 40.8927 127.428 40.566C128.026 40.2393 128.712 40.076 129.486 40.076C130.242 40.076 130.914 40.2347 131.502 40.552C132.09 40.8693 132.548 41.322 132.874 41.91C133.21 42.498 133.378 43.184 133.378 43.968ZM130.928 43.338C130.928 42.9273 130.788 42.6007 130.508 42.358C130.228 42.1153 129.878 41.994 129.458 41.994C129.057 41.994 128.716 42.1107 128.436 42.344C128.166 42.5773 127.998 42.9087 127.932 43.338H130.928ZM144.609 40.104C145.58 40.104 146.35 40.398 146.919 40.986C147.498 41.574 147.787 42.3907 147.787 43.436V48H145.407V43.758C145.407 43.254 145.272 42.8667 145.001 42.596C144.74 42.316 144.376 42.176 143.909 42.176C143.443 42.176 143.074 42.316 142.803 42.596C142.542 42.8667 142.411 43.254 142.411 43.758V48H140.031V43.758C140.031 43.254 139.896 42.8667 139.625 42.596C139.364 42.316 139 42.176 138.533 42.176C138.067 42.176 137.698 42.316 137.427 42.596C137.166 42.8667 137.035 43.254 137.035 43.758V48H134.641V40.188H137.035V41.168C137.278 40.8413 137.595 40.5847 137.987 40.398C138.379 40.202 138.823 40.104 139.317 40.104C139.905 40.104 140.428 40.23 140.885 40.482C141.352 40.734 141.716 41.0933 141.977 41.56C142.248 41.1307 142.617 40.7807 143.083 40.51C143.55 40.2393 144.059 40.104 144.609 40.104Z" fill="#646464"/>
</g>
<defs>
<filter id="filter0_bd_2_2547" x="-15" y="-15" width="225" height="117" filterUnits="userSpaceOnUse" color-interpolation-filters="sRGB">
<feFlood flood-opacity="0" result="BackgroundImageFix"/>
<feGaussianBlur in="BackgroundImageFix" stdDeviation="5"/>
<feComposite in2="SourceAlpha" operator="in" result="effect1_backgroundBlur_2_2547"/>
<feColorMatrix in="SourceAlpha" type="matrix" values="0 0 0 0 0 0 0 0 0 0 0 0 0 0 0 0 0 0 127 0" result="hardAlpha"/>
<feOffset/>
<feGaussianBlur stdDeviation="15"/>
<feComposite in2="hardAlpha" operator="out"/>
<feColorMatrix type="matrix" values="0 0 0 0 0 0 0 0 0 0 0 0 0 0 0 0 0 0 0.1 0"/>
<feBlend mode="normal" in2="effect1_backgroundBlur_2_2547" result="effect2_dropShadow_2_2547"/>
<feBlend mode="normal" in="SourceGraphic" in2="effect2_dropShadow_2_2547" result="shape"/>
</filter>
</defs>
</svg>
